<?xml version="1.0" ?><svg viewBox="0 0 64 64" xmlns="http://www.w3.org/2000/svg"><title/><g id="Tub"><path d="M23,29a1,1,0,0,1-1-1V21a1,1,0,0,1,2,0v7A1,1,0,0,1,23,29Zm1,4V32a1,1,0,0,0-2,0v1a1,1,0,0,0,2,0ZM20,22V21a1,1,0,0,0-2,0v1a1,1,0,0,0,2,0ZM62,39.5A3.09,3.09,0,0,1,58.89,42a1.61,1.61,0,0,0-1.53,1.17C55.56,49,50,53.82,42.5,56.23V57a3,3,0,0,1-6,.54,33.55,33.55,0,0,1-9.1,0A3,3,0,0,1,21.5,57v-.77C14,53.82,8.44,49,6.64,43.17A1.6,1.6,0,0,0,5.14,42H5a3,3,0,0,1-3-3.5A3.09,3.09,0,0,1,5.11,36H6.17V13.06a8.06,8.06,0,0,1,16.1-.47,5,5,0,0,1,4.15,4.91,1,1,0,0,1-1,1h-8a1,1,0,0,1-1-1,5,5,0,0,1,3.85-4.85,6.06,6.06,0,0,0-12.1.41V36H59a3,3,0,0,1,3,3.5Zm-40.54-25a3,3,0,0,0-2.83,2h5.66A3,3,0,0,0,21.42,14.5ZM36,38v5a2,2,0,0,0,2,2h8a2,2,0,0,0,2-2V38ZM25.5,56.4V55a1,1,0,0,0-2,0v2a1,1,0,0,0,2,0Zm15-.9V55a1,1,0,0,0-2,0v2a1,1,0,0,0,2,0ZM60,39.17a1,1,0,0,0-.23-.82A1,1,0,0,0,59,38H50v5a4,4,0,0,1-4,4H38a4,4,0,0,1-4-4V38H5.11a1.09,1.09,0,0,0-1.1.83,1,1,0,0,0,.23.82A1,1,0,0,0,5,40h.14a3.59,3.59,0,0,1,3.41,2.58c1.57,5.07,6.41,9.34,13.07,11.59A1.43,1.43,0,0,1,21.7,54l.06-.16a4,4,0,0,1,.22-.41l0-.06a3.47,3.47,0,0,1,.34-.42l.11-.09a3.61,3.61,0,0,1,.3-.25l.16-.1a3.07,3.07,0,0,1,.31-.17l.18-.08.35-.11.17,0A2.6,2.6,0,0,1,24.5,52a3,3,0,0,1,3,3v.54a33.08,33.08,0,0,0,9,0V55a3,3,0,0,1,3-3,2.6,2.6,0,0,1,.56.06l.17,0,.35.11.18.08a3.07,3.07,0,0,1,.31.17l.16.1a3.61,3.61,0,0,1,.3.25l.11.09a3.47,3.47,0,0,1,.34.42l0,.06a4,4,0,0,1,.22.41l.06.16a1.43,1.43,0,0,1,.08.22c6.66-2.25,11.5-6.52,13.07-11.59A3.59,3.59,0,0,1,58.86,40,1.1,1.1,0,0,0,60,39.17Z"/></g></svg>