<?xml version="1.0" encoding="iso-8859-1"?>
<!-- Generator: Adobe Illustrator 19.0.0, SVG Export Plug-In . SVG Version: 6.00 Build 0)  -->
<svg version="1.1" id="Layer_1" xmlns="http://www.w3.org/2000/svg" xmlns:xlink="http://www.w3.org/1999/xlink" x="0px" y="0px"
	 viewBox="0 0 512.001 512.001" style="enable-background:new 0 0 512.001 512.001;" xml:space="preserve">
<g>
	<g>
		<rect x="79.746" y="403.645" width="352.028" height="15.762"/>
	</g>
</g>
<g>
	<g>
		<polygon points="23.002,196.112 23.002,339.541 38.764,339.541 38.764,211.856 471.706,211.349 471.706,339.541 487.468,339.541 
			487.468,195.568 		"/>
	</g>
</g>
<g>
	<g>
		<path d="M455.313,347.559v-0.001c-2.389-14.364-11.188-26.579-23.352-33.61v-46.551c0-13.172-10.716-23.888-23.889-23.888H280.011
			c-13.172,0-23.889,10.716-23.889,23.888v40.142h-8.249v-40.142c0-13.172-10.716-23.888-23.888-23.888H103.926
			c-13.172,0-23.887,10.716-23.887,23.888v46.551c-12.164,7.03-20.963,19.246-23.353,33.611H0v103.804h32.459v32.143h15.762v-32.143
			h391.959v32.143h15.762v-32.143h56.058V347.559H455.313z M271.884,267.397c0-4.482,3.645-8.126,8.126-8.126h128.061
			c4.482,0,8.126,3.645,8.126,8.126v40.846c-2.644-0.454-5.355-0.704-8.126-0.704H271.884V267.397z M95.801,267.397
			c0-4.482,3.645-8.126,8.125-8.126h120.058c4.482,0,8.126,3.645,8.126,8.126v40.142H103.926c-2.77,0-5.482,0.25-8.125,0.703
			V267.397z M103.926,323.301h304.147c15.002,0,27.633,10.334,31.156,24.256H72.77C76.293,333.635,88.924,323.301,103.926,323.301z
			 M496.238,403.642h-48.702v15.762h48.702v16.195H15.762v-16.195h48.221v-15.762H15.762V363.32h480.475V403.642z"/>
	</g>
</g>
<g>
	<g>
		<path d="M48.222,28.495v142.913H464.35V28.495H48.222z M448.588,155.646H63.984v-48.338h8.05v39.909h367.931v-39.909h8.622
			V155.646z M87.797,131.455V67.178h336.406v64.276H87.797z M448.588,91.545h-8.622V51.416H72.034v40.13h-8.05V44.259h384.604
			V91.545z"/>
	</g>
</g>
<g>
	<g>
		
			<rect x="132.624" y="91.435" transform="matrix(0.7071 -0.7071 0.7071 0.7071 -28.0673 130.8723)" width="22.638" height="15.762"/>
	</g>
</g>
<g>
	<g>
		
			<rect x="161.327" y="91.431" transform="matrix(0.7071 -0.7071 0.7071 0.7071 -16.3413 159.1719)" width="45.28" height="15.762"/>
	</g>
</g>
<g>
	<g>
		
			<rect x="220.665" y="91.437" transform="matrix(0.7071 -0.7071 0.7071 0.7071 -2.2823 193.1272)" width="22.638" height="15.762"/>
	</g>
</g>
<g>
	<g>
		<rect x="249.375" y="91.44" transform="matrix(0.7071 -0.7071 0.7071 0.7071 9.4404 221.4339)" width="45.28" height="15.762"/>
	</g>
</g>
<g>
	<g>
		<rect x="308.713" y="91.437" transform="matrix(0.7071 -0.7071 0.7071 0.7071 23.507 255.3864)" width="22.638" height="15.762"/>
	</g>
</g>
<g>
	<g>
		<rect x="337.413" y="91.439" transform="matrix(0.7071 -0.7071 0.7071 0.7071 35.227 283.6862)" width="45.28" height="15.762"/>
	</g>
</g>
<g>
</g>
<g>
</g>
<g>
</g>
<g>
</g>
<g>
</g>
<g>
</g>
<g>
</g>
<g>
</g>
<g>
</g>
<g>
</g>
<g>
</g>
<g>
</g>
<g>
</g>
<g>
</g>
<g>
</g>
</svg>
