<?xml version="1.0" encoding="iso-8859-1"?>
<!-- Generator: Adobe Illustrator 19.0.0, SVG Export Plug-In . SVG Version: 6.00 Build 0)  -->
<svg version="1.1" id="Layer_1" xmlns="http://www.w3.org/2000/svg" xmlns:xlink="http://www.w3.org/1999/xlink" x="0px" y="0px"
	 viewBox="0 0 512.006 512.006" style="enable-background:new 0 0 512.006 512.006;" xml:space="preserve">
<g>
	<g>
		<path d="M499.2,428.791h-12.8V181.299l7.834,3.302c1.613,0.674,3.302,0.998,4.966,0.998c4.983,0,9.737-2.935,11.802-7.834
			c2.739-6.511-0.316-14.012-6.835-16.759l-243.2-102.4c-3.174-1.323-6.75-1.323-9.924,0l-243.2,102.4
			c-6.528,2.748-9.574,10.249-6.835,16.759c2.748,6.537,10.3,9.54,16.759,6.835l7.834-3.302v247.492H12.8
			c-7.074,0-12.8,5.726-12.8,12.8s5.726,12.8,12.8,12.8h486.4c7.074,0,12.8-5.726,12.8-12.8
			C512,434.517,506.274,428.791,499.2,428.791z M409.6,428.791H102.4v-51.2h307.2V428.791z M409.6,352H102.4v-51.2h307.2V352z
			 M409.6,275.2H102.4V224h307.2V275.2z M460.8,428.791h-25.6v-204.8c0-14.131-11.46-25.591-25.6-25.591H102.4
			c-14.14,0-25.6,11.46-25.6,25.6v204.8H51.2V170.521L256,84.284l204.8,86.229V428.791z"/>
	</g>
</g>
<g>
</g>
<g>
</g>
<g>
</g>
<g>
</g>
<g>
</g>
<g>
</g>
<g>
</g>
<g>
</g>
<g>
</g>
<g>
</g>
<g>
</g>
<g>
</g>
<g>
</g>
<g>
</g>
<g>
</g>
</svg>
