<svg width="300" height="300" viewBox="0 0 300 300" fill="none" xmlns="http://www.w3.org/2000/svg">
<path d="M98.3029 258C94.789 258 86.0042 256.258 86.0042 244.064C91.2751 207.484 77.2193 193.548 59.6496 177.871C43.8369 163.935 28.0241 148.258 26.2672 115.161C24.5102 96 31.5381 78.5806 43.8369 64.6452C56.1357 50.7097 75.4623 42 93.032 42C117.63 42 140.47 54.1935 152.769 75.0968C165.068 59.4193 184.395 50.7097 205.478 50.7097H207.235C224.805 50.7097 242.375 59.4193 254.673 73.3548C266.972 87.2903 274 104.71 274 123.871C274 177.871 214.263 223.161 103.574 256.258C101.817 258 100.06 258 98.3029 258ZM94.789 59.4194C80.7332 59.4194 66.6775 66.3871 56.1357 76.8387C47.3508 87.2903 43.8369 99.4839 43.8369 113.419C45.5938 139.548 57.8926 151.742 71.9484 165.677C87.7611 181.355 107.088 198.774 103.574 238.839C201.964 207.484 256.43 167.419 256.43 125.613C256.43 109.935 252.916 96 242.375 85.5484C233.59 75.0968 221.291 69.871 207.235 69.871H205.478C187.908 69.871 172.096 78.5806 161.554 94.2581C156.283 101.226 143.984 99.4839 142.227 92.5161C135.199 71.6129 115.873 59.4194 94.789 59.4194Z" fill="black"/>
</svg>
