<svg width="300" height="300" viewBox="0 0 300 300" fill="none" xmlns="http://www.w3.org/2000/svg">
<path d="M255.571 72.0896C243.721 59.194 226.485 51.6716 209.249 50.597H207.094C185.549 50.597 166.159 61.3433 153.232 78.5373C141.382 55.9702 118.76 42 93.9828 42H92.9056C74.5922 42 56.2789 49.5224 44.4291 63.4925C31.5021 76.3881 25.0386 94.6567 26.1158 112.925C28.2703 145.164 44.4291 161.284 59.5107 175.254C76.7467 192.448 92.9056 206.418 87.5193 247.254C87.5193 253.701 90.751 258 96.1373 258C98.2918 258 99.3691 258 102.601 256.925C214.635 222.537 273.884 176.328 273.884 124.746V123.672C274.961 103.254 268.498 86.0597 255.571 72.0896ZM96.1373 251.552V246.179V251.552Z" fill="black"/>
</svg>
