<?xml version="1.0" encoding="iso-8859-1"?>
<!-- Generator: Adobe Illustrator 19.0.0, SVG Export Plug-In . SVG Version: 6.00 Build 0)  -->
<svg version="1.1" id="Layer_1" xmlns="http://www.w3.org/2000/svg" xmlns:xlink="http://www.w3.org/1999/xlink" x="0px" y="0px"
	 viewBox="0 0 512.013 512.013" style="enable-background:new 0 0 512.013 512.013;" xml:space="preserve">
<g>
	<g>
		<g>
			<rect x="149.339" y="341.342" width="64" height="21.333"/>
			<rect x="320.006" y="362.676" width="42.667" height="149.333"/>
			<path d="M490.673,426.676c11.797,0,21.333-9.557,21.333-21.333s-9.536-21.333-21.333-21.333H469.34V297.78
				c5.845-1.621,11.52-4.117,16.789-7.616c15.509-10.347,24.896-26.944,25.813-45.525c0.896-18.475-6.741-35.797-20.971-47.595
				L269.979,5.236c-8-6.976-19.947-6.976-27.947,0L21.297,196.831c-14.4,11.797-22.123,29.205-21.227,47.808
				c0.917,18.581,10.304,35.179,25.835,45.525c5.269,3.52,10.923,6.059,16.768,7.659v86.187H21.339
				c-11.797,0-21.333,9.557-21.333,21.333s9.536,21.333,21.333,21.333h21.333v21.333H21.339c-11.797,0-21.333,9.557-21.333,21.333
				s9.536,21.333,21.333,21.333h21.333c0,11.776,9.536,21.333,21.333,21.333h213.333V341.342c0-11.776,9.536-21.333,21.333-21.333
				h85.333c11.797,0,21.333,9.557,21.333,21.333v170.667h42.667c11.797,0,21.333-9.557,21.333-21.333h21.333
				c11.797,0,21.333-9.557,21.333-21.333s-9.536-21.333-21.333-21.333H469.34v-21.333H490.673z M256.006,384.009
				c0,11.776-9.536,21.333-21.333,21.333H128.006c-11.797,0-21.333-9.557-21.333-21.333v-64c0-11.776,9.536-21.333,21.333-21.333
				h106.667c11.797,0,21.333,9.557,21.333,21.333V384.009z M462.491,254.644c-2.795,1.877-6.037,2.731-9.195,2.624
				c-0.64-0.149-1.173-0.533-1.835-0.64c-3.157-0.533-5.525-1.429-7.232-2.795l-174.4-148.437
				c-3.989-3.371-8.917-5.077-13.824-5.077s-9.835,1.707-13.824,5.077l-86.528,73.643l-0.107,0.085L67.91,253.748
				c-1.707,1.408-4.139,2.347-7.36,2.88c-0.619,0.107-1.131,0.448-1.728,0.597c-3.2,0.149-6.443-0.683-9.28-2.56
				c-4.096-2.752-6.613-7.168-6.848-12.117c-0.256-4.928,1.813-9.579,6.101-13.099L256.006,49.588l207.211,179.861
				c0.149,0.149,0.32,0.277,0.448,0.405c3.84,3.115,5.909,7.765,5.653,12.693C469.084,247.497,466.566,251.913,462.491,254.644z"/>
		</g>
	</g>
</g>
<g>
</g>
<g>
</g>
<g>
</g>
<g>
</g>
<g>
</g>
<g>
</g>
<g>
</g>
<g>
</g>
<g>
</g>
<g>
</g>
<g>
</g>
<g>
</g>
<g>
</g>
<g>
</g>
<g>
</g>
</svg>
