<svg width="300" height="300" viewBox="0 0 300 300" fill="none" xmlns="http://www.w3.org/2000/svg">
<path d="M106.293 262H66.5602C56.862 262 49 253.318 49 242.609V56.574C49 45.8645 56.862 37.1826 66.5602 37.1826H106.293C115.992 37.1826 123.853 45.8645 123.853 56.574V242.609C123.853 253.318 115.992 262 106.293 262Z" fill="black"/>
<path d="M232.436 261.817H192.703C183.005 261.817 175.143 253.136 175.143 242.426V56.3914C175.143 45.6818 183.005 37 192.703 37H232.436C242.134 37 249.996 45.6818 249.996 56.3914V242.426C249.996 253.136 242.134 261.817 232.436 261.817Z" fill="black"/>
<path d="M109.341 37.5215C112.768 41.0602 114.943 46.0606 114.943 51.6516V237.686C114.943 248.396 107.081 257.078 97.3827 257.078H57.6495C56.6066 257.078 55.5994 256.93 54.6055 256.738C57.7431 259.976 61.9281 261.999 66.5633 261.999H106.296C115.995 261.999 123.857 253.317 123.857 242.608V56.5733C123.857 47.0154 117.581 39.121 109.341 37.5215Z" fill="black"/>
<path d="M235.483 37.3389C238.91 40.8776 241.085 45.878 241.085 51.469V237.504C241.085 248.213 233.223 256.895 223.525 256.895H183.792C182.749 256.895 181.742 256.747 180.748 256.555C183.886 259.794 188.071 261.817 192.706 261.817H232.439C242.137 261.817 249.999 253.135 249.999 242.425V56.3907C249.999 46.8328 243.724 38.9335 235.483 37.3389Z" fill="black"/>
<path d="M106.293 262H66.5602C56.862 262 49 253.318 49 242.609V56.574C49 45.8645 56.862 37.1826 66.5602 37.1826H106.293C115.992 37.1826 123.853 45.8645 123.853 56.574V242.609C123.853 253.318 115.992 262 106.293 262Z" stroke="black" stroke-miterlimit="10"/>
<path d="M232.436 261.817H192.703C183.005 261.817 175.143 253.136 175.143 242.426V56.3914C175.143 45.6818 183.005 37 192.703 37H232.436C242.134 37 249.996 45.6818 249.996 56.3914V242.426C249.996 253.136 242.134 261.817 232.436 261.817Z" stroke="black" stroke-miterlimit="10"/>
</svg>
