<?xml version="1.0" encoding="iso-8859-1"?>
<!-- Generator: Adobe Illustrator 18.0.0, SVG Export Plug-In . SVG Version: 6.00 Build 0)  -->
<!DOCTYPE svg PUBLIC "-//W3C//DTD SVG 1.1//EN" "http://www.w3.org/Graphics/SVG/1.1/DTD/svg11.dtd">
<svg version="1.1" id="Capa_1" xmlns="http://www.w3.org/2000/svg" xmlns:xlink="http://www.w3.org/1999/xlink" x="0px" y="0px"
	 viewBox="0 0 494.938 494.938" style="enable-background:new 0 0 494.938 494.938;" xml:space="preserve">
<g>
	<path d="M19.215,154.585l112.695,46.467c2.078,0.852,4.221,1.259,6.337,1.259c5.718,0,11.247-2.957,14.333-8.142l50.739-85.448
		l92.707-45.619l2.856,42.134c0.1,1.243,0.943,2.308,2.132,2.665c1.188,0.365,2.486-0.057,3.252-1.049L381.922,5.623
		c0.776-1.016,0.922-2.38,0.339-3.526c-0.553-1.153-1.721-1.877-2.992-1.877L251.672,0c-1.25-0.008-2.356,0.764-2.815,1.935
		c-0.437,1.161-0.109,2.486,0.813,3.315l31.648,27.986l-97.127,47.799c-2.908,1.43-5.316,3.664-6.974,6.436l-45.929,77.33
		l-99.367-40.98c-8.533-3.527-18.238,0.545-21.746,9.036C6.664,141.356,10.729,151.082,19.215,154.585z"/>
	<path d="M469.375,445.01H25.567c-13.801,0-24.966,11.173-24.966,24.965c0,13.789,11.165,24.963,24.966,24.963h443.808
		c13.78,0,24.961-11.174,24.961-24.963C494.336,456.183,483.155,445.01,469.375,445.01z"/>
	<path d="M50.221,241.837c-5.557,0-10.074,4.519-10.074,10.085V401.64c0,5.566,4.518,10.086,10.074,10.086h58.886
		c5.571,0,10.091-4.52,10.091-10.086V251.922c0-5.566-4.52-10.085-10.091-10.085H50.221z"/>
	<path d="M375.761,82.027V401.64c0,5.566,4.52,10.086,10.075,10.086h58.901c5.556,0,10.075-4.52,10.075-10.086V82.027
		c0-5.566-4.52-10.086-10.075-10.086h-58.901C380.28,71.941,375.761,76.461,375.761,82.027z"/>
	<path d="M273.969,161.045c-5.57,0-10.09,4.52-10.09,10.086V401.64c0,5.566,4.519,10.086,10.09,10.086h58.886
		c5.557,0,10.075-4.52,10.075-10.086V171.131c0-5.566-4.519-10.086-10.075-10.086H273.969z"/>
	<path d="M162.103,286.386c-5.571,0-10.091,4.517-10.091,10.084v105.17c0,5.566,4.52,10.086,10.091,10.086h58.87
		c5.572,0,10.092-4.52,10.092-10.086V296.47c0-5.567-4.52-10.084-10.092-10.084H162.103z"/>
</g>
<g>
</g>
<g>
</g>
<g>
</g>
<g>
</g>
<g>
</g>
<g>
</g>
<g>
</g>
<g>
</g>
<g>
</g>
<g>
</g>
<g>
</g>
<g>
</g>
<g>
</g>
<g>
</g>
<g>
</g>
</svg>
