<?xml version="1.0" encoding="iso-8859-1"?>
<!-- Generator: Adobe Illustrator 19.1.0, SVG Export Plug-In . SVG Version: 6.00 Build 0)  -->
<svg version="1.1" id="Capa_1" xmlns="http://www.w3.org/2000/svg" xmlns:xlink="http://www.w3.org/1999/xlink" x="0px" y="0px"
	 viewBox="0 0 478.6 478.6" style="enable-background:new 0 0 478.6 478.6;" xml:space="preserve">
<g>
	<path id="XMLID_1718_" d="M442.7,444.6c-14.3-96.2-51.6-191-139.6-221.4C337.3,201.9,360,164,360,120.7C360,54.1,306,0,239.3,0
		S118.6,54,118.6,120.7c0,43.2,22.8,81.2,56.9,102.5c-88,30.4-125.4,125.2-139.6,221.4c-2.7,17.9,11.4,34,29.5,34H413
		C431.3,478.6,445.4,462.5,442.7,444.6z M164.1,120.7c0-41.5,33.8-75.3,75.3-75.3c9.9,0,18,8.1,18,18s-8.1,18-18,18
		c-21.7,0-39.3,17.6-39.3,39.3c0,9.9-8.1,18-18,18C172.1,138.7,164.1,130.7,164.1,120.7z"/>
</g>
<g>
</g>
<g>
</g>
<g>
</g>
<g>
</g>
<g>
</g>
<g>
</g>
<g>
</g>
<g>
</g>
<g>
</g>
<g>
</g>
<g>
</g>
<g>
</g>
<g>
</g>
<g>
</g>
<g>
</g>
</svg>
